<svg width="171" height="240" viewBox="0 0 171 240" fill="none" xmlns="http://www.w3.org/2000/svg">
  <path fill-rule="evenodd" clip-rule="evenodd" d="M47.5219 59.623C47.5219 59.623 61.1713 50.571 60.741 31.3796C60.3217 12.1853 48.0963 0.771667 48.0963 0.771667C48.0963 0.771667 32.3956 11.7641 32.8202 30.497C33.236 49.1969 47.5219 59.623 47.5219 59.623ZM64.2303 100.761C64.2303 100.761 80.836 94.8456 86.4789 77.0138C92.1109 59.1849 80.1083 44.1382 80.1083 44.1382C80.1083 44.1382 65.2124 51.5659 59.4127 69.8642C53.638 88.1677 64.2303 100.761 64.2303 100.761ZM34.8836 99.0457C34.8836 99.0457 41.2304 83.8798 30.2582 68.1211C19.2939 52.3485 2.83117 49.6516 2.83117 49.6516C2.83117 49.6516 -4.121 67.5506 6.58262 82.9211C17.2534 98.3004 34.8836 99.0457 34.8836 99.0457ZM80.1404 150.45C80.1404 150.45 68.0057 139.331 71.3523 120.427C74.7019 101.534 88.5034 92.2168 88.5034 92.2168C88.5034 92.2168 102.342 105.57 99.1129 123.994C95.8454 142.405 80.1404 150.45 80.1404 150.45ZM113.357 123.712C113.357 123.712 100.504 134.285 98.9401 153.443C97.3846 172.588 110.499 182.502 110.499 182.502C110.499 182.502 125.347 173.011 126.87 154.359C128.393 135.706 113.357 123.712 113.357 123.712ZM157.85 180.628C161.747 198.951 150.247 212.335 150.247 212.335C150.247 212.335 134.841 206.619 130.839 187.817C126.848 169.012 136.096 155.157 136.096 155.157C136.096 155.157 153.942 162.308 157.85 180.628ZM31.6572 109.142C46.7423 120.97 45.161 137.35 45.161 137.35C45.161 137.35 28.1196 141.861 13.3811 130.317C-1.35444 118.785 0.034976 99.5904 0.034976 99.5904C0.034976 99.5904 16.5363 97.3119 31.6572 109.142ZM68.1527 173.305C68.1527 173.305 66.0705 156.973 48.731 148.779C31.3864 140.61 15.8241 146.518 15.8241 146.518C15.8241 146.518 18.7295 165.566 35.6297 173.524C52.5299 181.482 68.1527 173.305 68.1527 173.305ZM69.9673 183.223C88.9461 185.755 95.8513 200.714 95.8513 200.714C95.8513 200.714 83.4608 213.274 64.9537 210.794C46.4605 208.321 37.9465 191.044 37.9465 191.044C37.9465 191.044 50.9637 180.687 69.9673 183.223ZM107.752 211.989C88.6175 211.764 76.8911 223.604 76.8911 223.604C76.8911 223.604 87.3745 239.729 106.039 239.997C124.69 240.211 135.482 226.25 135.482 226.25C135.482 226.25 126.879 212.228 107.752 211.989ZM43.2693 68.0834L52.252 69.8678C51.5323 73.5748 36.3678 161.732 170.318 226.072L166.414 234.322C25.6897 166.758 43.0862 69.0641 43.2693 68.0834Z" fill="url(#paint0_linear)"/>
  <defs>
    <linearGradient id="paint0_linear" x1="87.3595" y1="0.771667" x2="87.3595" y2="240" gradientUnits="userSpaceOnUse">
      <stop stop-color="#DCDDE0"/>
      <stop offset="1" stop-color="#DCDDE0" stop-opacity="0"/>
    </linearGradient>
  </defs>
</svg>
